# xmcd
#
# Track frame offsets:
#	150
#	17625
#	35705
#	55087
#	76987
#	96347
#	115515
#	136617
#	158502
#	177040
#	202105
#	217962
#	234382
#
# Disc length: 3386 seconds
#
# Revision: 1
# Processed by: cddbd v1.5.1PL2 Copyright (c) Steve Scherf et al.
# Submitted via: CDmax 2.0
#
DISCID=9c0d380d
DTITLE=RAVEN SYMONE' - UNDENIABLE
DYEAR=1999
DGENRE=Blues
TTITLE0=With a Child's Heart - Uptempo Verision
TTITLE1=I Can Get Down
TTITLE2=Hip Hoppers
TTITLE3=Slow Down
TTITLE4=Best Friends
TTITLE5=People Make The World Go Round
TTITLE6=Bounce
TTITLE7=I Love You
TTITLE8=Lean On Me
TTITLE9=With A Child Heart - Ballad Version
TTITLE10=Pure Love
TTITLE11=With A Child Heart - Bonus Uptempo Version
TTITLE12=CH - International Bonus House  Mix
EXTD=
EXTT0=
EXTT1=
EXTT2=
EXTT3=
EXTT4=
EXTT5=
EXTT6=
EXTT7=
EXTT8=
EXTT9=
EXTT10=
EXTT11=
EXTT12=
PLAYORDER=
